<?xml version="1.0" encoding="UTF-8" standalone="no"?>
<!-- Created with Inkscape (http://www.inkscape.org/) -->

<svg
   width="21.047504mm"
   height="33.253654mm"
   viewBox="0 0 21.047504 33.253654"
   version="1.1"
   id="svg1"
   xml:space="preserve"
   xmlns:inkscape="http://www.inkscape.org/namespaces/inkscape"
   xmlns:sodipodi="http://sodipodi.sourceforge.net/DTD/sodipodi-0.dtd"
   xmlns="http://www.w3.org/2000/svg"
   xmlns:svg="http://www.w3.org/2000/svg"><sodipodi:namedview
     id="namedview1"
     pagecolor="#ffffff"
     bordercolor="#000000"
     borderopacity="0.25"
     inkscape:showpageshadow="2"
     inkscape:pageopacity="0.0"
     inkscape:pagecheckerboard="0"
     inkscape:deskcolor="#d1d1d1"
     inkscape:document-units="mm" /><defs
     id="defs1" /><g
     inkscape:label="Capa 1"
     inkscape:groupmode="layer"
     id="layer1"
     transform="translate(-50.557904,-150.23013)"><path
       style="fill:#ffffff"
       d="m 60.321595,183.28866 c -2.807867,-0.70031 -5.449852,-2.73815 -6.524474,-5.03251 l -0.610345,-1.30311 h -1.314437 -1.314437 l 0.146461,-1.6152 c 0.106101,-1.1701 0.478617,-2.30224 1.351785,-4.10833 1.135957,-2.34964 1.214518,-2.6564 1.365063,-5.33011 0.286461,-5.08759 0.832664,-6.72542 2.887312,-8.65782 1.12356,-1.05671 1.125533,-1.06194 1.285195,-3.40346 0.151009,-2.21463 0.62375,-3.608 1.224116,-3.608 0.250321,0 0.183933,1.70769 -0.09262,2.38257 -0.08975,0.21901 -0.191398,1.21996 -0.22589,2.22433 -0.06176,1.79834 -0.05138,1.82924 0.682094,2.03092 1.119264,0.30774 2.471578,1.44684 3.202663,2.69771 0.358587,0.61353 1.018337,2.46523 1.466111,4.11489 0.9658,3.55814 1.113045,3.86103 3.043687,6.26104 1.043592,1.2973 1.617963,2.30779 1.917493,3.37344 l 0.42762,1.52135 h 1.18321 1.183209 l -0.166179,1.21241 c -0.354359,2.58533 -2.081475,4.81152 -4.86947,6.27657 -2.008026,1.05519 -4.40072,1.42408 -6.248162,0.96331 z m 5.273901,-24.1372 c -2.465526,-1.63252 -4.689024,-3.26587 -4.941105,-3.62967 -0.252082,-0.36381 -0.537251,-1.16748 -0.63371,-1.78594 l -0.17538,-1.12448 h 1.858115 c 1.021964,0 2.157299,0.11375 2.522967,0.25278 0.971351,0.3693 2.654731,1.97329 3.567461,3.39921 0.863937,1.34969 2.499616,5.2326 2.36662,5.61809 -0.04521,0.13102 -2.099441,-1.09747 -4.564968,-2.72999 z"
       id="path3" /></g></svg>
