<?xml version="1.0" encoding="UTF-8" standalone="no"?>
<!-- Created with Inkscape (http://www.inkscape.org/) -->

<svg
   width="39.003399mm"
   height="39.003395mm"
   viewBox="0 0 39.003399 39.003395"
   version="1.1"
   id="svg1"
   inkscape:version="1.3.2 (091e20e, 2023-11-25)"
   sodipodi:docname="peraweb_sketch.svg"
   xml:space="preserve"
   xmlns:inkscape="http://www.inkscape.org/namespaces/inkscape"
   xmlns:sodipodi="http://sodipodi.sourceforge.net/DTD/sodipodi-0.dtd"
   xmlns="http://www.w3.org/2000/svg"
   xmlns:svg="http://www.w3.org/2000/svg"><sodipodi:namedview
     id="namedview1"
     pagecolor="#ffffff"
     bordercolor="#000000"
     borderopacity="0.25"
     inkscape:showpageshadow="2"
     inkscape:pageopacity="0.0"
     inkscape:pagecheckerboard="0"
     inkscape:deskcolor="#d1d1d1"
     inkscape:document-units="mm"
     inkscape:zoom="0.43475843"
     inkscape:cx="86.254796"
     inkscape:cy="405.97258"
     inkscape:window-width="1280"
     inkscape:window-height="662"
     inkscape:window-x="0"
     inkscape:window-y="0"
     inkscape:window-maximized="1"
     inkscape:current-layer="layer1" /><defs
     id="defs1" /><g
     inkscape:label="Capa 1"
     inkscape:groupmode="layer"
     id="layer1"
     transform="translate(218.11594,18.390619)"><g
       id="g8"
       transform="translate(-58.039626,-66.176435)"
       inkscape:export-filename="archivo.svg"
       inkscape:export-xdpi="96"
       inkscape:export-ydpi="96"
       style="stroke:#ffffff"><path
         style="font-size:45.7762px;line-height:1.2;font-family:'Fractured Fir';-inkscape-font-specification:'Fractured Fir';text-align:center;letter-spacing:3.65228px;word-spacing:0px;text-anchor:middle;fill:#ffffff;stroke:#ffffff;stroke-width:0.500001;stroke-linecap:round;paint-order:markers stroke fill"
         d="m -145.1325,51.233962 0.75996,0.178813 h 3.79978 q 0.40233,0 1.07288,5.073827 2.43633,4.269167 2.43633,12.695743 h 0.13411 v -0.849363 q 0,-8.873609 -2.27987,-11.511105 l -0.75995,-5.25264 0.31292,-0.156462 h 1.36345 q 0.31292,0.0447 0.31292,0.335275 l -0.15646,1.676375 q 0.15646,0.938769 0.15646,1.363451 h 0.15647 q 0,-3.375101 0.60349,-3.375101 l 1.36345,-0.178813 q 0.15646,0.335275 0.15646,0.514088 -0.75995,1.162287 -0.75995,1.3411 1.07288,7.867784 5.16323,28.297201 0.20116,0 1.22934,1.3411 v 0.178813 l -0.15646,0.335275 q -1.78813,-0.178813 -2.59279,-0.178813 h -2.72691 q -0.75995,0 -2.27986,0.178813 l -0.15647,-0.335275 q 0.91642,-1.07288 1.05053,-1.698726 -0.29057,-2.034001 -0.89406,-4.917365 l -0.78231,0.178813 q -2.79396,-0.178813 -4.09036,-0.178813 -2.25751,-2.793958 -2.30222,-3.710376 l 0.15646,-0.849363 v -0.692901 h -0.15646 l -0.44703,5.766728 v 0.514088 h 0.15646 l 0.29057,-3.062177 h 0.46939 q 0.22351,0 1.20699,1.698726 0,1.363451 -1.20699,5.587915 0,0.201165 0.91642,1.363451 l -0.15647,0.335275 -1.51991,-0.178813 h -3.50921 q -0.75996,0 -2.27987,0.178813 l -0.15646,-0.335275 q 1.54226,-1.229341 1.9893,-4.246815 2.88336,-15.377942 3.64332,-20.138846 0.15646,0 0.46938,-1.698726 h 0.29057 v 2.212814 h 0.15647 q 0,-0.871714 0.31292,-5.431453 -0.13411,-0.759956 -1.07288,-1.855188 z m 2.57044,6.951366 -0.29057,4.895014 v 0.178813 h 0.15646 q 0.13411,-0.827011 0.29058,-4.58209 v -0.491737 z m 1.67638,3.375101 -1.36345,9.320642 v 0.156462 l 0.75995,-0.156462 v 0.156462 q 0.15646,0 0.15646,-0.156462 l 0.75996,0.156462 h 1.51991 v -0.156462 l -1.67637,-9.320642 z m 11.26523,2.212814 h 0.31293 v 0.156462 h -0.31293 z m -14.90855,1.676375 q -0.31293,3.218639 -0.31293,4.246815 v 0.849363 h 0.15647 q 0,-1.363451 0.31292,-4.917365 v -0.178813 z m 3.64332,2.726902 h 0.31292 v 0.335275 h -0.31292 z m 0.15646,1.676375 0.15646,0.357626 -0.31292,0.156462 h -0.15646 v -0.156462 q 0.067,-0.357626 0.31292,-0.357626 z m 8.98537,2.034001 0.15646,0.357626 -0.31292,0.156462 -0.15647,-0.335275 z m -0.44704,1.184638 h 0.29058 l 0.15646,0.692901 h -0.31293 q -0.13411,-0.603495 -0.13411,-0.692901 z m 1.05053,0.849363 h 0.46939 v 0.335275 h -0.46939 z m -11.4217,3.062177 q 0.31293,0.0447 0.31293,0.335275 v 0.156462 q 0,0.357626 -0.31293,0.357626 -0.29057,0 -0.29057,-0.357626 v -0.156462 q 0.0447,-0.335275 0.29057,-0.335275 z"
         id="text6"
         aria-label="A" /><path
         id="path6"
         style="fill:none;stroke:#ffffff;stroke-width:4;stroke-linecap:round;paint-order:markers stroke fill"
         d="m -123.0729,67.287514 a 17.501698,17.501698 0 0 1 -17.5017,17.501697 17.501698,17.501698 0 0 1 -17.5017,-17.501697 17.501698,17.501698 0 0 1 17.5017,-17.501698 17.501698,17.501698 0 0 1 17.5017,17.501698 z" /></g></g></svg>
