<?xml version="1.0" encoding="UTF-8" standalone="no"?>
<!-- Created with Inkscape (http://www.inkscape.org/) -->

<svg
   width="29.212339mm"
   height="54.068794mm"
   viewBox="0 0 29.212339 54.068794"
   version="1.1"
   id="svg1"
   inkscape:version="1.3.2 (091e20e, 2023-11-25)"
   sodipodi:docname="peraweb_sketch.svg"
   xml:space="preserve"
   xmlns:inkscape="http://www.inkscape.org/namespaces/inkscape"
   xmlns:sodipodi="http://sodipodi.sourceforge.net/DTD/sodipodi-0.dtd"
   xmlns="http://www.w3.org/2000/svg"
   xmlns:svg="http://www.w3.org/2000/svg"><sodipodi:namedview
     id="namedview1"
     pagecolor="#ffffff"
     bordercolor="#000000"
     borderopacity="0.25"
     inkscape:showpageshadow="2"
     inkscape:pageopacity="0.0"
     inkscape:pagecheckerboard="0"
     inkscape:deskcolor="#d1d1d1"
     inkscape:document-units="mm"
     inkscape:zoom="0.30742063"
     inkscape:cx="396.85039"
     inkscape:cy="561.12043"
     inkscape:window-width="1280"
     inkscape:window-height="662"
     inkscape:window-x="0"
     inkscape:window-y="0"
     inkscape:window-maximized="1"
     inkscape:current-layer="layer1" /><defs
     id="defs1" /><g
     inkscape:label="Capa 1"
     inkscape:groupmode="layer"
     id="layer1"
     transform="translate(-8.4288094,-171.52293)"><path
       style="font-size:73.35px;line-height:1.2;font-family:'Daily Hours';-inkscape-font-specification:'Daily Hours';text-align:center;letter-spacing:5.85239px;word-spacing:0px;text-anchor:middle;fill:#ffffff;stroke:none;stroke-width:0.5;stroke-linecap:round;paint-order:markers stroke fill"
       d="m 36.117144,187.0214 q -0.95355,0 -2.56725,0.1467 -1.54035,0.0733 -3.15405,0.5868 -1.54035,0.4401 -2.934,1.39365 -1.39365,0.8802 -1.98045,2.4939 -0.1467,0.2934 -0.1467,1.0269 0,1.68705 1.6137,3.6675 1.6137,1.9071 3.5208,4.03425 1.9071,2.12715 3.5208,4.5477 1.6137,2.42055 1.6137,5.1345 0,1.467 -0.51345,2.7873 -0.66015,1.83375 -1.7604,3.30075 -1.10025,1.467 -2.56725,2.71395 l 2.56725,5.7213 -8.58195,4.03425 -2.0538,-5.79465 q -3.2274,0.80685 -6.0147,0.80685 -1.68705,0 -3.15405,-0.22005 -1.39365,-0.2934 -2.6406,-0.7335 l -2.5672498,-9.9756 q 1.1002499,0.22005 2.3471998,0.36675 1.0269,0.1467 2.3472,0.22005 1.39365,0.0734 2.86065,0.0734 1.39365,0 2.7873,-0.1467 1.467,-0.1467 2.6406,-0.4401 1.24695,-0.36675 2.0538,-0.95355 0.8802,-0.66015 1.24695,-1.54035 0.1467,-0.22005 0.1467,-0.4401 0,-0.2934 0,-0.51345 0,-1.10025 -0.7335,-2.27385 -0.7335,-1.24695 -1.83375,-2.56725 -1.10025,-1.39365 -2.42055,-2.86065 -1.3203,-1.467 -2.42055,-3.0807 -1.10025,-1.6137 -1.83375,-3.3741 -0.7335,-1.7604 -0.7335,-3.74085 0,-0.80685 0.07335,-1.6137 0.1467,-0.80685 0.51345,-1.68705 0.36675,-1.0269 0.8802,-1.83375 0.5868,-0.8802 1.1736,-1.68705 l -2.56725,-7.26165 7.7751,-3.5208 2.3472,5.20785 q 1.83375,-0.80685 3.59415,-1.3203 1.7604,-0.51345 3.15405,-0.8802 1.6137,-0.36675 3.00735,-0.5868 l 2.42055,10.78245 z"
       id="text5"
       transform="scale(1.0133832,0.98679356)"
       aria-label="$" /></g></svg>
