<?xml version="1.0" encoding="UTF-8" standalone="no"?>
<!-- Created with Inkscape (http://www.inkscape.org/) -->

<svg
   width="88.074303mm"
   height="48.3032mm"
   viewBox="0 0 88.074303 48.3032"
   version="1.1"
   id="svg1"
   inkscape:version="1.3.2 (091e20e, 2023-11-25)"
   sodipodi:docname="peraweb_sketch.svg"
   xml:space="preserve"
   xmlns:inkscape="http://www.inkscape.org/namespaces/inkscape"
   xmlns:sodipodi="http://sodipodi.sourceforge.net/DTD/sodipodi-0.dtd"
   xmlns="http://www.w3.org/2000/svg"
   xmlns:svg="http://www.w3.org/2000/svg"><sodipodi:namedview
     id="namedview1"
     pagecolor="#ffffff"
     bordercolor="#000000"
     borderopacity="0.25"
     inkscape:showpageshadow="2"
     inkscape:pageopacity="0.0"
     inkscape:pagecheckerboard="0"
     inkscape:deskcolor="#d1d1d1"
     inkscape:document-units="mm"
     inkscape:zoom="0.30742063"
     inkscape:cx="396.85039"
     inkscape:cy="561.12043"
     inkscape:window-width="1280"
     inkscape:window-height="662"
     inkscape:window-x="0"
     inkscape:window-y="0"
     inkscape:window-maximized="1"
     inkscape:current-layer="layer1" /><defs
     id="defs1" /><g
     inkscape:label="Capa 1"
     inkscape:groupmode="layer"
     id="layer1"
     transform="translate(-13.296851,-89.616666)"><path
       style="font-size:98.6611px;line-height:1.2;font-family:D050000L;-inkscape-font-specification:D050000L;text-align:center;letter-spacing:7.8719px;word-spacing:0px;text-anchor:middle;fill:#ffffff;stroke:none;stroke-width:0.5;stroke-linecap:round;paint-order:markers stroke fill"
       d="m 102.54132,112.37139 c -0.29599,-0.0987 -0.49331,-0.19732 -0.69063,-0.19732 l -0.39464,-0.0987 c 0,0 -0.19733,0 -0.49331,-0.0987 l -0.78929,-0.19733 c -6.807615,-1.77589 -11.346025,-5.52502 -18.449625,-15.193805 -4.143766,-5.722344 -7.498243,-7.991549 -11.64201,-7.991549 -4.735733,0 -9.471466,4.143766 -11.050043,9.570127 l -0.789289,3.157157 c -1.479917,5.03171 -2.66385,6.41297 -6.018327,6.41297 -2.367867,0 -3.650461,-0.88795 -5.229039,-3.65046 -3.255816,-5.623684 -2.861172,-5.525023 -20.126865,-5.525023 -4.735732,0 -6.807616,0.394645 -8.682177,1.479913 -3.058494,1.97323 -4.735732,6.41298 -4.735732,12.62862 0,6.41298 2.071883,11.24737 5.525021,12.82595 1.874561,0.78929 3.5518,0.98661 9.471466,0.98661 15.391132,0 15.095149,0.0987 19.140254,-6.41297 1.381255,-2.07189 2.269205,-2.66385 4.538411,-2.66385 3.255816,0 4.735733,1.47991 6.018327,6.01832 l 1.183933,4.24243 c 1.282594,4.93306 6.018327,8.68218 10.852721,8.68218 4.242428,0 7.498244,-2.36787 11.740672,-8.18887 7.300921,-10.35942 11.64201,-13.61523 20.620172,-15.78578 z m -26.441177,-1.57858 c 0.591966,0 1.085272,0 1.183933,0 l 7.004938,0.19733 c 0.197322,0 1.973222,0.0987 5.426361,0.39464 4.045105,0.19732 5.525021,0.49331 5.525021,0.98661 0,0.19732 -0.493305,0.49331 -1.085272,0.59197 -1.7759,0.39464 -6.215649,0.69063 -9.767449,0.78929 l -7.103599,0.19732 c 0,0 -0.493306,0 -1.183933,0.0987 -1.381256,3.45314 -3.5518,5.3277 -6.314311,5.3277 -3.453139,0 -6.116988,-3.05849 -6.116988,-6.90628 0,-3.84778 2.76251,-7.00494 6.116988,-7.00494 2.762511,0 4.933055,1.87457 6.314311,5.3277 z"
       id="text4"
       transform="scale(0.98858831,1.0115434)"
       aria-label="2"
       inkscape:export-filename="logo_reflexiones.svg"
       inkscape:export-xdpi="96"
       inkscape:export-ydpi="96" /></g></svg>
