<?xml version="1.0" encoding="UTF-8" standalone="no"?>
<!-- Created with Inkscape (http://www.inkscape.org/) -->

<svg
   width="26.77953mm"
   height="42.039158mm"
   viewBox="0 0 26.77953 42.039158"
   version="1.1"
   id="svg1"
   inkscape:version="1.3.2 (091e20e, 2023-11-25)"
   sodipodi:docname="peraweb_sketch.svg"
   xml:space="preserve"
   xmlns:inkscape="http://www.inkscape.org/namespaces/inkscape"
   xmlns:sodipodi="http://sodipodi.sourceforge.net/DTD/sodipodi-0.dtd"
   xmlns="http://www.w3.org/2000/svg"
   xmlns:svg="http://www.w3.org/2000/svg"><sodipodi:namedview
     id="namedview1"
     pagecolor="#ffffff"
     bordercolor="#000000"
     borderopacity="0.25"
     inkscape:showpageshadow="2"
     inkscape:pageopacity="0.0"
     inkscape:pagecheckerboard="0"
     inkscape:deskcolor="#d1d1d1"
     inkscape:document-units="mm"
     inkscape:zoom="0.30742063"
     inkscape:cx="396.85039"
     inkscape:cy="561.12043"
     inkscape:window-width="1280"
     inkscape:window-height="662"
     inkscape:window-x="0"
     inkscape:window-y="0"
     inkscape:window-maximized="1"
     inkscape:current-layer="layer1" /><defs
     id="defs1" /><g
     inkscape:label="Capa 1"
     inkscape:groupmode="layer"
     id="layer1"
     transform="translate(-57.548478,-112.3813)"><g
       inkscape:label="Capa 1"
       id="layer1-6"
       style="display:inline;fill:#ffffff"
       transform="translate(78.205501,67.739046)"
       inkscape:export-filename="logo_pera.svg"
       inkscape:export-xdpi="96"
       inkscape:export-ydpi="96"><g
         id="text10"
         style="font-size:22.7457px;font-family:NATS;-inkscape-font-specification:NATS;text-align:center;letter-spacing:0.454908px;text-anchor:middle;fill:#ffffff;stroke-width:4.00001;stroke-linecap:round"
         aria-label="&#10;ya!" /><path
         style="fill:#ffffff;stroke-width:1.00001"
         d="m -8.2343134,86.434745 c -3.5725526,-0.88533 -6.9340476,-3.461561 -8.3013296,-6.362083 l -0.776564,-1.647386 h -1.672407 -1.672408 l 0.186347,-2.041932 c 0.134999,-1.479235 0.608964,-2.910482 1.719928,-5.193735 1.44532,-2.970407 1.545276,-3.358213 1.73682,-6.738307 0.364476,-6.431715 1.059429,-8.502253 3.673633,-10.945187 1.429548,-1.335889 1.432058,-1.3425 1.635203,-4.302642 0.192134,-2.799728 0.79362,-4.561221 1.557487,-4.561221 0.3184926,0 0.2340246,2.158855 -0.117843,3.012037 -0.114192,0.276871 -0.243523,1.542268 -0.287409,2.81199 -0.07858,2.273455 -0.06537,2.312519 0.8678536,2.567482 1.424081,0.389044 3.14468,1.82909 4.074867,3.410435 0.456244,0.775623 1.295668,3.116536 1.865387,5.20203 1.228823,4.498189 1.416168,4.881102 3.87259596,7.915185 1.32780104,1.640043 2.05859404,2.917501 2.43969704,4.264692 l 0.544078,1.923286 h 1.505441 1.505441 l -0.211436,1.532724 c -0.450864,3.268365 -2.648338,6.082706 -6.19560704,7.934818 -2.55488596,1.333968 -5.59919896,1.800317 -7.94976796,1.217814 z m 6.71018,-30.514166 c -3.13698,-2.063827 -5.966019,-4.128701 -6.286752,-4.588617 -0.320732,-0.459926 -0.683563,-1.475924 -0.806291,-2.257779 l -0.223143,-1.421563 h 2.364148 c 1.300283,0 2.744812,0.143803 3.210065,0.319563 1.235886,0.466868 3.37771196,2.494627 4.539013,4.29727 1.099219,1.706274 3.180354,6.615035 3.011139,7.10237 -0.05752,0.165635 -2.671197,-1.387418 -5.808179,-3.451244 z"
         id="path3" /></g></g></svg>
