<?xml version="1.0" encoding="UTF-8" standalone="no"?>
<!-- Created with Inkscape (http://www.inkscape.org/) -->

<svg
   width="16.359037mm"
   height="11.352327mm"
   viewBox="0 0 16.359037 11.352327"
   version="1.1"
   id="svg1"
   inkscape:version="1.3.2 (091e20e, 2023-11-25)"
   sodipodi:docname="peraweb_sketch.svg"
   xml:space="preserve"
   xmlns:inkscape="http://www.inkscape.org/namespaces/inkscape"
   xmlns:sodipodi="http://sodipodi.sourceforge.net/DTD/sodipodi-0.dtd"
   xmlns="http://www.w3.org/2000/svg"
   xmlns:svg="http://www.w3.org/2000/svg"><sodipodi:namedview
     id="namedview1"
     pagecolor="#ffffff"
     bordercolor="#000000"
     borderopacity="0.25"
     inkscape:showpageshadow="2"
     inkscape:pageopacity="0.0"
     inkscape:pagecheckerboard="0"
     inkscape:deskcolor="#d1d1d1"
     inkscape:document-units="mm"
     inkscape:zoom="0.30742063"
     inkscape:cx="396.85039"
     inkscape:cy="561.12043"
     inkscape:window-width="1280"
     inkscape:window-height="662"
     inkscape:window-x="0"
     inkscape:window-y="0"
     inkscape:window-maximized="1"
     inkscape:current-layer="layer1" /><defs
     id="defs1" /><g
     inkscape:label="Capa 1"
     inkscape:groupmode="layer"
     id="layer1"
     transform="translate(-129.46979,-146.8766)"><g
       inkscape:label="Capa 1"
       id="g4"
       style="display:inline;fill:#ffffff"
       transform="translate(78.431284,65.294657)"><path
         style="fill:#ffffff;stroke-width:0.99999"
         d="m 54.725276,92.830979 c -2.639085,-0.23244 -2.990314,-0.39496 -3.378036,-1.56311 -0.443258,-1.33547 -0.397837,-7.20573 0.06316,-8.1621 0.67361,-1.39747 1.434939,-1.542 8.018882,-1.52224 8.043989,0.0241 7.959122,-0.0352 7.968167,5.57023 0.006,3.75358 -0.296086,4.93085 -1.369234,5.33508 -0.957822,0.36079 -8.499226,0.58907 -11.302931,0.34214 z m 5.234456,-4.26046 c 1.141089,-0.64555 2.073161,-1.24304 2.071263,-1.32776 -0.005,-0.22187 -4.066852,-2.53002 -4.452333,-2.53002 -0.21969,0 -0.323293,0.80617 -0.323293,2.51575 0,1.67038 0.105793,2.51576 0.31483,2.51576 0.173156,0 1.248447,-0.52818 2.389533,-1.17373 z"
         id="path2" /><g
         id="g2"
         style="font-size:22.7457px;font-family:NATS;-inkscape-font-specification:NATS;text-align:center;letter-spacing:0.454908px;text-anchor:middle;fill:#ffffff;stroke-width:4.00001;stroke-linecap:round"
         aria-label="&#10;ya!" /></g></g></svg>
