<?xml version="1.0" encoding="UTF-8" standalone="no"?>
<!-- Created with Inkscape (http://www.inkscape.org/) -->

<svg
   width="210mm"
   height="297mm"
   viewBox="0 0 210 297"
   version="1.1"
   id="svg1"
   inkscape:version="1.3.2 (091e20e, 2023-11-25)"
   sodipodi:docname="peraweb_sketch.svg"
   xml:space="preserve"
   xmlns:inkscape="http://www.inkscape.org/namespaces/inkscape"
   xmlns:sodipodi="http://sodipodi.sourceforge.net/DTD/sodipodi-0.dtd"
   xmlns="http://www.w3.org/2000/svg"
   xmlns:svg="http://www.w3.org/2000/svg"><sodipodi:namedview
     id="namedview1"
     pagecolor="#ffffff"
     bordercolor="#000000"
     borderopacity="0.25"
     inkscape:showpageshadow="2"
     inkscape:pageopacity="0.0"
     inkscape:pagecheckerboard="0"
     inkscape:deskcolor="#d1d1d1"
     inkscape:document-units="mm"
     inkscape:zoom="0.43475843"
     inkscape:cx="86.254796"
     inkscape:cy="405.97258"
     inkscape:window-width="1280"
     inkscape:window-height="662"
     inkscape:window-x="0"
     inkscape:window-y="0"
     inkscape:window-maximized="1"
     inkscape:current-layer="layer1" /><defs
     id="defs1"><filter
       inkscape:collect="always"
       style="color-interpolation-filters:sRGB"
       id="filter6"
       x="-0.20959404"
       y="-0.13351434"
       width="1.4191881"
       height="1.2670287"><feGaussianBlur
         inkscape:collect="always"
         stdDeviation="2.3386789"
         id="feGaussianBlur6" /></filter></defs><g
     inkscape:label="Capa 1"
     inkscape:groupmode="layer"
     id="layer1"><g
       id="g7"
       inkscape:export-filename="./logoides.svg"
       inkscape:export-xdpi="96"
       inkscape:export-ydpi="96"><g
         inkscape:label="Capa 1"
         id="g6"
         style="display:inline;fill:#000000;stroke-width:0.46992;filter:url(#filter6)"
         transform="matrix(2.128022,0,0,2.128022,-38.971811,-25.372162)"
         inkscape:export-filename="logo_pera.svg"
         inkscape:export-xdpi="96"
         inkscape:export-ydpi="96"><g
           id="g5"
           style="font-size:22.7457px;font-family:NATS;-inkscape-font-specification:NATS;text-align:center;letter-spacing:0.454908px;text-anchor:middle;fill:#000000;stroke-width:1.87968;stroke-linecap:round"
           aria-label="&#10;ya!" /><path
           style="fill:#000000;stroke-width:0.469925"
           d="m -8.2343134,86.434745 c -3.5725526,-0.88533 -6.9340476,-3.461561 -8.3013296,-6.362083 l -0.776564,-1.647386 h -1.672407 -1.672408 l 0.186347,-2.041932 c 0.134999,-1.479235 0.608964,-2.910482 1.719928,-5.193735 1.44532,-2.970407 1.545276,-3.358213 1.73682,-6.738307 0.364476,-6.431715 1.059429,-8.502253 3.673633,-10.945187 1.429548,-1.335889 1.432058,-1.3425 1.635203,-4.302642 0.192134,-2.799728 0.79362,-4.561221 1.557487,-4.561221 0.3184926,0 0.2340246,2.158855 -0.117843,3.012037 -0.114192,0.276871 -0.243523,1.542268 -0.287409,2.81199 -0.07858,2.273455 -0.06537,2.312519 0.8678536,2.567482 1.424081,0.389044 3.14468,1.82909 4.074867,3.410435 0.456244,0.775623 1.295668,3.116536 1.865387,5.20203 1.228823,4.498189 1.416168,4.881102 3.87259596,7.915185 1.32780104,1.640043 2.05859404,2.917501 2.43969704,4.264692 l 0.544078,1.923286 h 1.505441 1.505441 l -0.211436,1.532724 c -0.450864,3.268365 -2.648338,6.082706 -6.19560704,7.934818 -2.55488596,1.333968 -5.59919896,1.800317 -7.94976796,1.217814 z m 6.71018,-30.514166 c -3.13698,-2.063827 -5.966019,-4.128701 -6.286752,-4.588617 -0.320732,-0.459926 -0.683563,-1.475924 -0.806291,-2.257779 l -0.223143,-1.421563 h 2.364148 c 1.300283,0 2.744812,0.143803 3.210065,0.319563 1.235886,0.466868 3.37771196,2.494627 4.539013,4.29727 1.099219,1.706274 3.180354,6.615035 3.011139,7.10237 -0.05752,0.165635 -2.671197,-1.387418 -5.808179,-3.451244 z"
           id="path5" /></g><g
         inkscape:label="Capa 1"
         id="layer1-6"
         style="display:inline;fill:#ffffff;stroke-width:0.46992"
         transform="matrix(2.128022,0,0,2.128022,-38.971811,-25.372162)"
         inkscape:export-filename="logo_pera.svg"
         inkscape:export-xdpi="96"
         inkscape:export-ydpi="96"><g
           id="text10"
           style="font-size:22.7457px;font-family:NATS;-inkscape-font-specification:NATS;text-align:center;letter-spacing:0.454908px;text-anchor:middle;fill:#ffffff;stroke-width:1.87968;stroke-linecap:round"
           aria-label="&#10;ya!" /><path
           style="fill:#ffffff;stroke-width:0.469925"
           d="m -8.2343134,86.434745 c -3.5725526,-0.88533 -6.9340476,-3.461561 -8.3013296,-6.362083 l -0.776564,-1.647386 h -1.672407 -1.672408 l 0.186347,-2.041932 c 0.134999,-1.479235 0.608964,-2.910482 1.719928,-5.193735 1.44532,-2.970407 1.545276,-3.358213 1.73682,-6.738307 0.364476,-6.431715 1.059429,-8.502253 3.673633,-10.945187 1.429548,-1.335889 1.432058,-1.3425 1.635203,-4.302642 0.192134,-2.799728 0.79362,-4.561221 1.557487,-4.561221 0.3184926,0 0.2340246,2.158855 -0.117843,3.012037 -0.114192,0.276871 -0.243523,1.542268 -0.287409,2.81199 -0.07858,2.273455 -0.06537,2.312519 0.8678536,2.567482 1.424081,0.389044 3.14468,1.82909 4.074867,3.410435 0.456244,0.775623 1.295668,3.116536 1.865387,5.20203 1.228823,4.498189 1.416168,4.881102 3.87259596,7.915185 1.32780104,1.640043 2.05859404,2.917501 2.43969704,4.264692 l 0.544078,1.923286 h 1.505441 1.505441 l -0.211436,1.532724 c -0.450864,3.268365 -2.648338,6.082706 -6.19560704,7.934818 -2.55488596,1.333968 -5.59919896,1.800317 -7.94976796,1.217814 z m 6.71018,-30.514166 c -3.13698,-2.063827 -5.966019,-4.128701 -6.286752,-4.588617 -0.320732,-0.459926 -0.683563,-1.475924 -0.806291,-2.257779 l -0.223143,-1.421563 h 2.364148 c 1.300283,0 2.744812,0.143803 3.210065,0.319563 1.235886,0.466868 3.37771196,2.494627 4.539013,4.29727 1.099219,1.706274 3.180354,6.615035 3.011139,7.10237 -0.05752,0.165635 -2.671197,-1.387418 -5.808179,-3.451244 z"
           id="path3" /></g></g><g
       inkscape:label="Capa 1"
       id="g4"
       style="display:inline;fill:#999999"
       transform="translate(78.431284,65.294657)"
       inkscape:export-filename="logo_tube.svg"
       inkscape:export-xdpi="96"
       inkscape:export-ydpi="96"><path
         style="fill:#999999;stroke-width:0.99999"
         d="m 54.725276,92.830979 c -2.639085,-0.23244 -2.990314,-0.39496 -3.378036,-1.56311 -0.443258,-1.33547 -0.397837,-7.20573 0.06316,-8.1621 0.67361,-1.39747 1.434939,-1.542 8.018882,-1.52224 8.043989,0.0241 7.959122,-0.0352 7.968167,5.57023 0.006,3.75358 -0.296086,4.93085 -1.369234,5.33508 -0.957822,0.36079 -8.499226,0.58907 -11.302931,0.34214 z m 5.234456,-4.26046 c 1.141089,-0.64555 2.073161,-1.24304 2.071263,-1.32776 -0.005,-0.22187 -4.066852,-2.53002 -4.452333,-2.53002 -0.21969,0 -0.323293,0.80617 -0.323293,2.51575 0,1.67038 0.105793,2.51576 0.31483,2.51576 0.173156,0 1.248447,-0.52818 2.389533,-1.17373 z"
         id="path2" /><g
         id="g2"
         style="font-size:22.7457px;font-family:NATS;-inkscape-font-specification:NATS;text-align:center;letter-spacing:0.454908px;text-anchor:middle;fill:#999999;stroke-width:4.00001;stroke-linecap:round"
         aria-label="&#10;ya!" /></g><path
       style="font-size:98.6611px;line-height:1.2;font-family:D050000L;-inkscape-font-specification:D050000L;text-align:center;letter-spacing:7.8719px;word-spacing:0px;text-anchor:middle;stroke:none;stroke-width:0.5;stroke-linecap:round;paint-order:markers stroke fill;fill:#ffffff"
       d="m 102.54132,112.37139 c -0.29599,-0.0987 -0.49331,-0.19732 -0.69063,-0.19732 l -0.39464,-0.0987 c 0,0 -0.19733,0 -0.49331,-0.0987 l -0.78929,-0.19733 c -6.807615,-1.77589 -11.346025,-5.52502 -18.449625,-15.193805 -4.143766,-5.722344 -7.498243,-7.991549 -11.64201,-7.991549 -4.735733,0 -9.471466,4.143766 -11.050043,9.570127 l -0.789289,3.157157 c -1.479917,5.03171 -2.66385,6.41297 -6.018327,6.41297 -2.367867,0 -3.650461,-0.88795 -5.229039,-3.65046 -3.255816,-5.623684 -2.861172,-5.525023 -20.126865,-5.525023 -4.735732,0 -6.807616,0.394645 -8.682177,1.479913 -3.058494,1.97323 -4.735732,6.41298 -4.735732,12.62862 0,6.41298 2.071883,11.24737 5.525021,12.82595 1.874561,0.78929 3.5518,0.98661 9.471466,0.98661 15.391132,0 15.095149,0.0987 19.140254,-6.41297 1.381255,-2.07189 2.269205,-2.66385 4.538411,-2.66385 3.255816,0 4.735733,1.47991 6.018327,6.01832 l 1.183933,4.24243 c 1.282594,4.93306 6.018327,8.68218 10.852721,8.68218 4.242428,0 7.498244,-2.36787 11.740672,-8.18887 7.300921,-10.35942 11.64201,-13.61523 20.620172,-15.78578 z m -26.441177,-1.57858 c 0.591966,0 1.085272,0 1.183933,0 l 7.004938,0.19733 c 0.197322,0 1.973222,0.0987 5.426361,0.39464 4.045105,0.19732 5.525021,0.49331 5.525021,0.98661 0,0.19732 -0.493305,0.49331 -1.085272,0.59197 -1.7759,0.39464 -6.215649,0.69063 -9.767449,0.78929 l -7.103599,0.19732 c 0,0 -0.493306,0 -1.183933,0.0987 -1.381256,3.45314 -3.5518,5.3277 -6.314311,5.3277 -3.453139,0 -6.116988,-3.05849 -6.116988,-6.90628 0,-3.84778 2.76251,-7.00494 6.116988,-7.00494 2.762511,0 4.933055,1.87457 6.314311,5.3277 z"
       id="text4"
       transform="scale(0.98858831,1.0115434)"
       aria-label="2"
       inkscape:export-filename="logo_reflexiones.svg"
       inkscape:export-xdpi="96"
       inkscape:export-ydpi="96" /><path
       style="font-size:73.35px;line-height:1.2;font-family:'Daily Hours';-inkscape-font-specification:'Daily Hours';text-align:center;letter-spacing:5.85239px;word-spacing:0px;text-anchor:middle;stroke:none;stroke-width:0.5;stroke-linecap:round;paint-order:markers stroke fill;fill:#ffffff"
       d="m 36.117144,187.0214 q -0.95355,0 -2.56725,0.1467 -1.54035,0.0733 -3.15405,0.5868 -1.54035,0.4401 -2.934,1.39365 -1.39365,0.8802 -1.98045,2.4939 -0.1467,0.2934 -0.1467,1.0269 0,1.68705 1.6137,3.6675 1.6137,1.9071 3.5208,4.03425 1.9071,2.12715 3.5208,4.5477 1.6137,2.42055 1.6137,5.1345 0,1.467 -0.51345,2.7873 -0.66015,1.83375 -1.7604,3.30075 -1.10025,1.467 -2.56725,2.71395 l 2.56725,5.7213 -8.58195,4.03425 -2.0538,-5.79465 q -3.2274,0.80685 -6.0147,0.80685 -1.68705,0 -3.15405,-0.22005 -1.39365,-0.2934 -2.6406,-0.7335 l -2.5672498,-9.9756 q 1.1002499,0.22005 2.3471998,0.36675 1.0269,0.1467 2.3472,0.22005 1.39365,0.0734 2.86065,0.0734 1.39365,0 2.7873,-0.1467 1.467,-0.1467 2.6406,-0.4401 1.24695,-0.36675 2.0538,-0.95355 0.8802,-0.66015 1.24695,-1.54035 0.1467,-0.22005 0.1467,-0.4401 0,-0.2934 0,-0.51345 0,-1.10025 -0.7335,-2.27385 -0.7335,-1.24695 -1.83375,-2.56725 -1.10025,-1.39365 -2.42055,-2.86065 -1.3203,-1.467 -2.42055,-3.0807 -1.10025,-1.6137 -1.83375,-3.3741 -0.7335,-1.7604 -0.7335,-3.74085 0,-0.80685 0.07335,-1.6137 0.1467,-0.80685 0.51345,-1.68705 0.36675,-1.0269 0.8802,-1.83375 0.5868,-0.8802 1.1736,-1.68705 l -2.56725,-7.26165 7.7751,-3.5208 2.3472,5.20785 q 1.83375,-0.80685 3.59415,-1.3203 1.7604,-0.51345 3.15405,-0.8802 1.6137,-0.36675 3.00735,-0.5868 l 2.42055,10.78245 z"
       id="text5"
       transform="scale(1.0133832,0.98679356)"
       aria-label="$"
       inkscape:export-filename="logo_plata.svg"
       inkscape:export-xdpi="96"
       inkscape:export-ydpi="96" /></g></svg>
