<?xml version="1.0" encoding="UTF-8" standalone="no"?>
<!-- Created with Inkscape (http://www.inkscape.org/) -->

<svg
   width="21.442051mm"
   height="12.600321mm"
   viewBox="0 0 21.442051 12.600321"
   version="1.1"
   id="svg1"
   inkscape:version="1.3.2 (091e20e, 2023-11-25)"
   sodipodi:docname="logo_reflexiones.svg"
   xml:space="preserve"
   xmlns:inkscape="http://www.inkscape.org/namespaces/inkscape"
   xmlns:sodipodi="http://sodipodi.sourceforge.net/DTD/sodipodi-0.dtd"
   xmlns="http://www.w3.org/2000/svg"
   xmlns:svg="http://www.w3.org/2000/svg"><sodipodi:namedview
     id="namedview1"
     pagecolor="#ffffff"
     bordercolor="#000000"
     borderopacity="0.25"
     inkscape:showpageshadow="2"
     inkscape:pageopacity="0.0"
     inkscape:pagecheckerboard="0"
     inkscape:deskcolor="#d1d1d1"
     inkscape:document-units="mm"
     inkscape:zoom="0.30742063"
     inkscape:cx="396.85039"
     inkscape:cy="561.12043"
     inkscape:window-width="1280"
     inkscape:window-height="662"
     inkscape:window-x="0"
     inkscape:window-y="0"
     inkscape:window-maximized="1"
     inkscape:current-layer="layer1" /><defs
     id="defs1" /><g
     inkscape:label="Capa 1"
     inkscape:groupmode="layer"
     id="layer1"
     transform="translate(-46.211446,-179.45917)"><path
       d="m 46.211449,180.99723 v 10.23407 l 2.615486,0.38452 0.271418,-0.73946 h 2.047975 v -1.44933 c 1.085674,0.0591 1.209046,0.11831 2.418091,0.91692 1.060999,0.6803 1.801231,0.91693 3.010277,0.88735 h 1.258394 c 0.02467,0 0.0987,0 0.22207,0 0.320767,0.56199 0.814255,0.82819 1.529812,0.82819 1.776557,0 3.528439,-1.18313 3.528439,-2.39584 0,-0.41409 -0.148046,-0.76903 -0.61686,-1.41975 0.197395,-0.29578 0.22207,-0.44367 0.22207,-0.79861 0,-0.70988 -0.22207,-1.21271 -0.814255,-1.65639 0.123372,-0.32536 0.17272,-0.50282 0.17272,-0.68029 0,-0.35494 -0.123372,-0.62115 -0.444139,-1.06482 0.271419,0 0.468814,0 0.493488,0 l 2.516789,-0.17747 c 2.072649,-0.14789 3.010275,-0.65072 3.010275,-1.71554 0,-0.6803 -0.592185,-1.36059 -1.505136,-1.71553 -0.838931,-0.32536 -3.676486,-0.59157 -6.612739,-0.59157 -0.542837,0 -1.036325,0.0296 -1.85058,0.14789 -0.468814,-0.38451 -0.863604,-0.5324 -1.381767,-0.5324 -0.764906,0 -1.505138,0.32536 -2.64016,1.2127 -1.060999,0.79861 -1.554487,1.03524 -2.220696,1.03524 -0.04935,0 -0.172721,-0.0296 -0.296093,-0.0296 v -1.00566 z m 2.566137,0.6803 h 1.554487 v 8.04528 H 49.02433 Z m 2.368742,1.03524 c 0.83893,-0.0296 1.209046,-0.17747 1.875254,-0.6803 l 0.937628,-0.70988 c 0.814255,-0.62114 1.727207,-1.06481 2.220695,-1.06481 0.518163,0 1.085674,0.2662 1.45579,0.73945 l 1.751882,2.10006 c 0.296093,0.38451 0.493488,0.79861 0.493488,1.12397 0,0.44367 -0.493488,0.85777 -1.01165,0.85777 -0.370116,0 -0.888279,-0.23663 -1.23372,-0.59157 l -0.345442,-0.35494 -1.431115,-1.44933 -0.296093,0.4141 1.036325,1.59722 c -0.567511,0.76903 -1.381766,1.21271 -2.146673,1.21271 -0.320767,0 -0.78958,-0.0887 -1.357091,-0.23663 -0.07402,-0.0296 -0.172721,-0.0592 -0.320768,-0.0887 l -0.197395,0.44367 1.653185,0.6803 h 1.332417 c 0.370116,1.41975 0.542837,1.6268 1.431116,1.83385 0.04935,1.06481 0.246743,1.41975 0.888278,1.59722 v 0.38452 l -0.197395,0.0296 c -0.370116,0 -0.666209,0 -0.888279,0 -1.258394,0 -2.294719,-0.2662 -3.084299,-0.85777 l -0.962302,-0.73945 c -0.370116,-0.26621 -0.814255,-0.38452 -1.603836,-0.4141 z m 7.377645,-2.01132 c 1.036325,-0.0887 1.455789,-0.11831 2.121998,-0.11831 0.937627,0 2.86223,0.11831 3.775183,0.20705 1.653184,0.17747 2.418091,0.59156 2.418091,1.27186 0,0.2662 -0.148047,0.53241 -0.370116,0.65072 -0.222069,0.0887 -0.518163,0.14789 -0.863604,0.20705 -1.801231,0.14789 -3.25702,0.20704 -4.416717,0.20704 -0.0987,0 -0.444139,0 -0.912953,-0.0296 z m 2.344068,3.60854 c 0.320767,0.26621 0.419465,0.44368 0.419465,0.70988 0,0.59156 -0.345442,0.9465 -1.554488,1.59723 -0.518162,0.2662 -1.40644,0.68029 -1.899928,0.88734 -0.370116,0.14789 -0.444139,0.14789 -0.641534,0.14789 -0.493488,0 -0.937627,-0.47325 -0.937627,-1.00566 0,-0.38451 0.222069,-0.82819 0.542836,-1.09439 0.197396,-0.17747 0.518163,-0.35494 0.641535,-0.35494 0.04935,0 0.148046,0.0296 0.271418,0.0887 0.370116,0.17746 0.740232,0.2662 1.110348,0.2662 0.740232,0 1.40644,-0.38452 1.899928,-1.03524 l 0.04935,-0.0592 0.02468,-0.0591 c 0,0 0.02467,-0.0296 0.04935,-0.0592 z m 0.468813,2.24795 c 0.296093,0 0.592186,0.38451 0.592186,0.73945 0,0.62115 -0.468814,1.24229 -1.159697,1.56765 -0.814255,0.4141 -1.825905,0.70988 -2.344067,0.70988 -0.370116,0 -0.690884,-0.35494 -0.690884,-0.73946 0,-0.41409 0.148047,-0.53241 0.814256,-0.76903 0.123372,-0.0296 0.39479,-0.17747 0.764906,-0.38452 l 1.40644,-0.82819 c 0.44414,-0.2662 0.518163,-0.29578 0.61686,-0.29578 z m 0.468814,2.39584 c 0.04935,0 0.123372,0.0296 0.172721,0.0887 0.172721,0.23663 0.296093,0.59156 0.296093,0.79861 0,0.23663 -0.345442,0.6803 -0.715558,0.91693 -0.61686,0.41409 -1.381766,0.65072 -1.998626,0.65072 -0.592186,0 -1.060999,-0.35494 -1.060999,-0.82819 0,-0.23663 0.07402,-0.29578 0.444139,-0.38452 l 0.863604,-0.2662 c 0.296092,-0.0887 0.518162,-0.1479 0.542836,-0.1479 l 0.61686,-0.35493 c 0.370116,-0.20705 0.641535,-0.35494 0.641535,-0.35494 0.0987,-0.0887 0.172721,-0.11831 0.197395,-0.11831 z"
       id="text1"
       style="font-size:106.728px;line-height:1.2;font-family:D050000L;-inkscape-font-specification:D050000L;text-align:center;letter-spacing:8.51557px;word-spacing:0px;text-anchor:middle;fill:#ffffff;stroke-width:4;stroke-linecap:round;paint-order:markers stroke fill"
       aria-label="+" /></g></svg>
